*********** **** **** *** ******** *********** **** *** **********
*+* +*+*+* *+*+*+ *+* *+* *+* *+* *+* *+*+* *+* *+*
+*+ +*+ +*+*+ +*+ +*+ +*+ +*+ +*+ *+*+*+ +*+ +*+
+$+ +$+ +*+ +$+ +$++*++$++* *$* +$+ +$+ +*+ +$+ +$++*++$
+$+ +$+ +$+ +$+ +$+ +$+ +$+$ +$+ +$+ +$+$+$ +$+
$+$ $+$ $+$ $+$ $+$ $+$ $+$ $+$ $+$ $+$+$ $+$
$$$$$$$$$$$ $$$ $$$ $$$ $$$ $$$$$$$$ $$$$$$$$$$$ $$$ $$$$ $$$$$$$$$$




Another Fine Release Brought to you from - IMAGiNE


********************************************************************************************************************
Little Fockers 2010 720p TS XViD - IMAGiNE
********************************************************************************************************************

Ripper ...........:IMAGiNE IMDB Rating.......:5.3/10
Video Codec.......:XVID Release Date......:30/12/10
Audio Codec.......:MP3 Theatre Date......:22/12/10
Audio Bitrate.....:128 Runtime...........:1h 33mn
Subtitles.........:NIL Language..........:ENGLISH
Resolution........:1280 x 720 IMDb URL..........:http://www.imdb.com/title/tt0970866/



DETAILS:

Video
ID : 0
Format : MPEG-4 Visual
Format profile : Advanced Simple@L5
Format settings, BVOP : Yes
Format settings, QPel : No
Format settings, GMC : No warppoints
Format settings, Matrix : Default (H.263)
Muxing mode : Packed bitstream
Codec ID : XVID
Codec ID/Hint : XviD
Duration : 1h 33mn
Bit rate : 5 402 Kbps
Width : 1 280 pixels
Height : 720 pixels
Display aspect ratio : 16/9
Frame rate : 25.000 fps
Resolution : 24 bits
Colorimetry : 4:2:0
Scan type : Progressive
Bits/(Pixel*Frame) : 0.234
Stream size : 3.53 GiB (98%)
Writing library : XviD 1.1.2 (UTC 2006-11-01)

Audio
ID : 1
Format : MPEG Audio
Format version : Version 1
Format profile : Layer 3
Codec ID : 55
Codec ID/Hint : MP3
Duration : 1h 33mn
Bit rate mode : Constant
Bit rate : 128 Kbps
Channel(s) : 2 channels
Sampling rate : 44.1 KHz
Resolution : 16 bits
Stream size : 85.6 MiB (2%)
Alignment : Split accross interleaves
Interleave, duration : 40 ms (1.00 video frame)
Interleave, preload duration : 500 ms


SOURCES:

VIDEO:Serenity Thanks
AUDIO:Own


NOTES:

IMAGiNE bringing you another release.......... Little Fockers 720p

Ok heres another focker for ya
This time we've done a 720p rip and no it's not an upscale of or v2 .....serenity was kind enough to send us the
files.
Once again we had to encode it from scratch so needed to do some filtering on the brightness,contrast,sharpness and
the rgb colours.....also the audio needed to be resynced.

In our opinon this is one sweet looking 720p considering it's only a TS !!